<svg width="1855" height="1128" viewBox="0 0 1855 1128" fill="none" xmlns="http://www.w3.org/2000/svg">
<path fill-rule="evenodd" clip-rule="evenodd" d="M0 52.4444L61.8333 43.7037C123.667 34.963 247.333 17.4815 371 13.1111C494.667 8.74074 618.333 17.4815 742 34.963C865.667 52.4444 989.333 78.6667 1113 74.2963C1236.67 69.9259 1360.33 34.963 1484 17.4815C1607.67 0 1731.33 0 1793.17 0H1855V236H1793.17C1731.33 236 1607.67 236 1484 236C1360.33 236 1236.67 236 1113 236C989.333 236 865.667 236 742 236C618.333 236 494.667 236 371 236C247.333 236 123.667 236 61.8333 236H0V52.4444Z" fill="#72D4E0"/>
<path d="M0 236H1855V1128H0V236Z" fill="#72D4E0"/>
</svg>
