<svg width="1855" height="1148" viewBox="0 0 1855 1148" fill="none" xmlns="http://www.w3.org/2000/svg">
<path fill-rule="evenodd" clip-rule="evenodd" d="M0 113.942L26.2792 90.2659C51.0125 66.5896 103.571 19.237 154.583 5.03121C205.596 -9.17457 258.154 9.76647 309.167 23.9723C360.179 38.178 412.737 47.6486 463.75 47.6486C514.763 47.6486 567.321 38.178 618.333 52.3838C669.346 66.5896 721.904 104.472 772.917 109.207C823.929 113.942 876.487 85.5306 927.5 61.8543C978.513 38.178 1031.07 19.237 1082.08 33.4428C1133.1 47.6486 1185.65 95.0012 1236.67 90.2659C1287.68 85.5306 1340.24 28.7075 1391.25 19.237C1442.26 9.76647 1494.82 47.6486 1545.83 52.3838C1596.85 57.1191 1649.4 28.7075 1700.42 23.9723C1751.43 19.237 1803.99 38.178 1828.72 47.6486L1855 57.1191V256H1828.72C1803.99 256 1751.43 256 1700.42 256C1649.4 256 1596.85 256 1545.83 256C1494.82 256 1442.26 256 1391.25 256C1340.24 256 1287.68 256 1236.67 256C1185.65 256 1133.1 256 1082.08 256C1031.07 256 978.513 256 927.5 256C876.487 256 823.929 256 772.917 256C721.904 256 669.346 256 618.333 256C567.321 256 514.763 256 463.75 256C412.737 256 360.179 256 309.167 256C258.154 256 205.596 256 154.583 256C103.571 256 51.0125 256 26.2792 256H0V113.942Z" fill="#066D8D"/>
<path d="M0 256H1855V1148H0V256Z" fill="#066D8D"/>
<path d="M0 146H1855V493H0V146Z" fill="#066D8D"/>
</svg>
