<svg width="1855" height="1216" viewBox="0 0 1855 1216" fill="none" xmlns="http://www.w3.org/2000/svg">
<path fill-rule="evenodd" clip-rule="evenodd" d="M0 324L25.9182 293.989C51.8363 263.978 102.932 203.357 154.768 151.138C205.864 98.3189 257.701 53.3027 309.537 75.5107C360.633 98.3189 412.469 188.351 463.565 233.968C515.401 278.984 566.497 278.984 618.333 256.176C670.17 233.968 721.265 188.351 773.102 151.138C824.198 113.324 876.034 83.3135 927.87 106.122C978.966 128.33 1030.8 203.357 1081.9 218.962C1133.73 233.968 1184.83 188.351 1236.67 151.138C1288.5 113.324 1339.6 83.3135 1391.44 90.5161C1442.53 98.3189 1494.37 143.335 1546.2 121.127C1597.3 98.3189 1649.14 8.28651 1700.23 0.483708C1752.07 -6.71888 1803.16 68.3081 1829.08 106.122L1855 143.335V324H1829.08C1803.16 324 1752.07 324 1700.23 324C1649.14 324 1597.3 324 1546.2 324C1494.37 324 1442.53 324 1391.44 324C1339.6 324 1288.5 324 1236.67 324C1184.83 324 1133.73 324 1081.9 324C1030.8 324 978.966 324 927.87 324C876.034 324 824.198 324 773.102 324C721.265 324 670.17 324 618.333 324C566.497 324 515.401 324 463.565 324C412.469 324 360.633 324 309.537 324C257.701 324 205.864 324 154.768 324C102.932 324 51.8363 324 25.9182 324H0Z" fill="#2DCEE0"/>
<path d="M0 324H1855V1216H0V324Z" fill="#2DCEE0"/>
</svg>
