<svg width="1855" height="1148" viewBox="0 0 1855 1148" fill="none" xmlns="http://www.w3.org/2000/svg">
<path fill-rule="evenodd" clip-rule="evenodd" d="M0 136.262L34.0083 109.654C68.0167 83.0451 137.579 29.8282 205.596 9.87187C275.158 -10.0845 343.175 3.21976 412.738 23.1761C480.754 43.1324 550.317 69.7409 618.333 103.001C686.35 136.262 755.913 176.175 823.929 162.87C893.492 149.566 961.508 83.0451 1031.07 76.393C1099.09 69.7409 1168.65 122.958 1236.67 122.958C1304.68 122.958 1374.25 69.7409 1442.26 76.393C1511.83 83.0451 1579.84 149.566 1649.4 156.218C1717.42 162.87 1786.98 109.654 1820.99 83.0451L1855 56.4367V256H1820.99C1786.98 256 1717.42 256 1649.4 256C1579.84 256 1511.83 256 1442.26 256C1374.25 256 1304.68 256 1236.67 256C1168.65 256 1099.09 256 1031.07 256C961.508 256 893.492 256 823.929 256C755.913 256 686.35 256 618.333 256C550.317 256 480.754 256 412.738 256C343.175 256 275.158 256 205.596 256C137.579 256 68.0167 256 34.0083 256H0V136.262Z" fill="#00ACCD"/>
<path d="M0 256H1855V1148H0V256Z" fill="#00ACCD"/>
<path d="M0 182H1855V416H0V182Z" fill="#00ACCD"/>
</svg>
